<svg width="899" height="299" viewBox="0 0 899 299" fill="none" xmlns="http://www.w3.org/2000/svg">
<path d="M157.92 147.28C157.92 158.853 154.373 168.84 147.28 177.24C140.187 185.453 130.387 190.96 117.88 193.76C107.987 196 98.6533 197.307 89.88 197.68C81.1067 198.053 55.3467 198.24 12.6 198.24C6.62667 198.24 3.08 198.147 1.96 197.96C0.84 197.773 0.28 197.12 0.28 196C0.28 194.32 3.26667 193.48 9.24 193.48C15.4 193.48 19.2267 192.64 20.72 190.96C22.2133 189.093 22.96 184.707 22.96 177.8L22.68 17.64C22.68 12.2267 18.3867 9.42666 9.8 9.24C3.26667 9.05333 0 8.21333 0 6.72C0 5.04 2.05333 4.2 6.16 4.2C10.08 4.57334 13.9067 4.76001 17.64 4.76001H84.84C127.96 4.76001 149.52 19.5067 149.52 49C149.52 73.4533 133.467 88.5733 101.36 94.36L100.8 95.48C119.653 99.4 132.72 104.347 140 110.32C151.947 120.213 157.92 132.533 157.92 147.28ZM108.08 50.12C108.08 23.0533 99.68 9.51999 82.88 9.51999C76.9067 9.51999 72.8933 9.8 70.84 10.36C66.7333 11.6667 64.68 14.56 64.68 19.04V92.96C81.2933 92.96 92.68 90.0667 98.84 84.28C105 78.4933 108.08 67.1067 108.08 50.12ZM113.12 145.88C113.12 119.56 105.56 104.253 90.44 99.96C84.4667 98.28 75.88 97.44 64.68 97.44L65.24 113.68C65.24 118.347 65.0533 124.973 64.68 133.56C64.4933 137.853 64.4 145.88 64.4 157.64C64.4 177.8 64.96 188.533 66.08 189.84C67.5733 191.893 71.7733 192.92 78.68 192.92C101.64 192.92 113.12 177.24 113.12 145.88Z" fill="#1C969C"/>
<path d="M299.659 182.84C299.659 184.333 298.166 186.387 295.179 189C287.152 196.28 277.259 199.92 265.499 199.92C257.846 199.92 252.246 198.333 248.699 195.16C245.339 191.987 243.099 186.293 241.979 178.08C233.579 193.387 222.099 201.04 207.539 201.04C199.512 201.04 192.979 198.52 187.939 193.48C183.086 188.44 180.659 181.907 180.659 173.88C180.659 150.36 200.819 136.453 241.139 132.16V126.28C241.139 107.613 240.486 96.1333 239.179 91.84L238.899 90.44C236.286 81.1067 229.659 76.44 219.019 76.44C212.859 76.44 207.912 78.2133 204.179 81.76C200.446 85.3067 198.579 88.76 198.579 92.12C198.579 93.9867 200.819 95.1067 205.299 95.48C212.019 96.04 215.379 100.147 215.379 107.8C215.379 111.907 213.979 115.36 211.179 118.16C208.566 120.773 205.112 122.08 200.819 122.08C195.406 122.08 190.926 120.493 187.379 117.32C184.019 113.96 182.339 109.76 182.339 104.72C182.339 96.6933 186.352 89.4133 194.379 82.88C202.406 76.3467 212.952 73.08 226.019 73.08C245.432 73.08 258.966 76.5333 266.619 83.44C272.779 89.2267 275.859 99.3067 275.859 113.68V161.56C275.859 170.893 275.952 176.307 276.139 177.8C277.072 185.64 279.779 189.56 284.259 189.56C287.432 189.56 291.352 187.32 296.019 182.84C296.952 181.907 297.699 181.44 298.259 181.44C299.192 181.44 299.659 181.907 299.659 182.84ZM241.139 149.52V135.8C223.032 139.347 213.979 149.613 213.979 166.6C213.979 179.667 218.459 186.2 227.419 186.2C232.459 186.2 236.006 183.4 238.059 177.8C240.112 172.2 241.139 162.773 241.139 149.52Z" fill="#FFFFFF"/>
<path d="M391.307 179.76C391.307 181.813 389.533 184.52 385.987 187.88C376.84 196.653 364.24 201.04 348.187 201.04C333.44 201.04 323.733 197.4 319.067 190.12C317.2 187.32 316.08 184.707 315.707 182.28C315.52 179.853 315.427 173.6 315.427 163.52V150.08C315.427 146.533 315.427 142.8 315.427 138.88C315.24 134.96 315.147 133 315.147 133V107.8L314.867 87.64C314.867 84.28 314.4 82.32 313.467 81.76C312.533 81.2 309.733 80.92 305.067 80.92C299.467 80.92 296.667 80.1733 296.667 78.68C296.667 77.56 297.693 76.8133 299.747 76.44C317.293 75.88 332.413 66.36 345.107 47.88C346.787 45.2667 348.093 43.96 349.027 43.96C350.147 43.96 350.707 45.2667 350.707 47.88C350.52 63.9333 351.173 72.7067 352.667 74.2C354.16 75.6933 358.733 76.44 366.387 76.44C374.227 76.44 379.733 76.0667 382.907 75.32C383.28 75.1333 383.653 75.04 384.027 75.04C384.773 75.04 385.147 75.6 385.147 76.72C385.147 79.3333 383.933 80.64 381.507 80.64C373.853 80.8267 365.36 80.92 356.027 80.92C355.28 80.92 353.973 80.8267 352.107 80.64V86.52C352.107 136.547 352.76 165.853 354.067 174.44C355.747 185.267 360.973 190.68 369.747 190.68C373.667 190.68 378.707 187.88 384.867 182.28C387.853 179.667 389.72 178.36 390.467 178.36C391.027 178.36 391.307 178.827 391.307 179.76Z" fill="#FFFFFF"/>
<path d="M532.26 196.84C532.26 197.96 531.42 198.52 529.74 198.52C529.927 198.52 528.06 198.52 524.14 198.52C520.22 198.333 516.954 198.24 514.34 198.24H507.34C491.287 198.24 481.394 198.053 477.66 197.68H473.18L466.46 197.96C464.034 198.147 462.82 197.493 462.82 196C462.82 194.88 463.287 194.32 464.22 194.32L470.66 194.6C474.767 194.787 477.1 193.667 477.66 191.24C478.034 189.747 478.22 180.413 478.22 163.24V121.52C478.22 104.16 477.38 93.8933 475.7 90.72C473.274 85.8667 468.607 83.44 461.7 83.44C454.42 83.44 448.82 86.7067 444.9 93.24C443.034 96.4133 442.1 103.227 442.1 113.68V157.64C442.1 171.267 442.194 178.733 442.38 180.04V183.4L442.1 190.12C441.914 192.92 445.834 194.32 453.86 194.32C455.54 194.32 456.38 194.88 456.38 196C456.38 197.307 455.167 197.96 452.74 197.96C452.74 197.96 451.994 197.96 450.5 197.96C449.007 197.773 446.767 197.68 443.78 197.68H431.46L415.78 197.96L399.26 198.52H390.86C388.06 198.52 386.66 197.96 386.66 196.84C386.66 196.28 386.847 195.907 387.22 195.72C387.594 195.533 388.434 195.44 389.74 195.44C396.834 195.44 401.034 195.16 402.34 194.6C403.647 194.04 404.487 191.893 404.86 188.16C405.047 185.92 405.14 174.72 405.14 154.56V51.8C405.14 31.64 404.674 20.0667 403.74 17.08C402.994 13.9067 399.074 12.32 391.98 12.32C386.567 12.32 383.86 11.76 383.86 10.64C383.86 9.52 387.034 8.77333 393.38 8.39999C407.754 7.46666 421.287 5.04 433.98 1.12C436.407 0.373334 438.18 0 439.3 0C440.794 0 441.54 5.22667 441.54 15.68V21.28C441.54 25.0133 441.54 29.96 441.54 36.12C441.354 42.0933 441.26 46.2 441.26 48.44V92.96C446.674 85.3067 451.9 80.08 456.94 77.28C462.167 74.48 469.167 73.08 477.94 73.08C496.42 73.08 507.994 80.5467 512.66 95.48C514.34 100.333 515.18 108.173 515.18 119V184.24C515.18 189.093 515.927 192.08 517.42 193.2C519.1 194.32 523.114 194.88 529.46 194.88C531.327 194.88 532.26 195.533 532.26 196.84Z" fill="#FFFFFF"/>
<path d="M652.698 163.52C652.698 167.627 650.271 173.04 645.417 179.76C634.964 194.133 621.338 201.32 604.538 201.32C585.684 201.32 570.191 195.347 558.057 183.4C545.924 171.453 539.857 156.147 539.857 137.48C539.857 119.187 545.737 103.973 557.497 91.84C569.257 79.52 583.911 73.36 601.458 73.36C613.404 73.36 623.577 75.9733 631.977 81.2C641.311 86.9867 647.377 95.2933 650.177 106.12C650.924 109.48 651.484 113.493 651.857 118.16C647.564 118.533 630.297 118.813 600.057 119C595.391 119 589.511 119.187 582.417 119.56C581.857 126.28 581.578 131.973 581.578 136.64C581.578 158.48 586.151 173.973 595.297 183.12C600.711 188.533 607.337 191.24 615.177 191.24C621.711 191.24 627.964 189 633.938 184.52C640.097 180.04 644.764 174.253 647.938 167.16C649.431 163.613 650.644 161.84 651.578 161.84C652.324 161.84 652.698 162.4 652.698 163.52ZM617.417 114.8C617.604 100.427 616.578 90.44 614.338 84.84C612.098 79.24 608.178 76.44 602.578 76.44C591.191 76.44 584.657 89.2267 582.977 114.8C586.897 114.613 595.111 114.52 607.617 114.52C611.351 114.52 614.617 114.613 617.417 114.8Z" fill="#FFFFFF"/>
<path d="M766.498 93.8C766.498 99.2133 764.911 103.693 761.738 107.24C758.564 110.6 754.458 112.28 749.418 112.28C739.338 112.28 734.298 107.613 734.298 98.28C734.298 95.1067 735.511 91.9333 737.938 88.76C738.498 88.0133 738.778 87.36 738.778 86.8C738.778 85.12 737.564 84.28 735.138 84.28C728.791 84.28 723.938 89.2267 720.578 99.12C718.711 104.72 717.778 118.44 717.778 140.28V160.72L718.058 185.36C718.058 190.4 720.578 193.107 725.618 193.48C728.604 193.667 732.151 193.76 736.258 193.76C738.311 193.947 739.338 194.6 739.338 195.72C739.338 197.213 738.498 197.96 736.818 197.96H731.218C729.538 197.773 721.418 197.68 706.858 197.68C707.604 197.68 703.404 197.773 694.258 197.96L680.538 198.24H669.898C668.031 198.427 665.884 198.52 663.458 198.52C661.404 198.52 660.378 197.867 660.378 196.56C660.378 195.253 661.684 194.6 664.298 194.6C671.951 194.413 676.524 193.667 678.018 192.36C679.698 190.867 680.538 186.667 680.538 179.76L680.258 104.16C680.258 97.8133 679.324 93.4267 677.458 91C675.778 88.5733 671.858 87.08 665.698 86.52C660.844 86.1467 658.044 85.8667 657.298 85.68C656.738 85.4933 656.458 84.84 656.458 83.72C656.458 82.6 657.204 82.04 658.698 82.04C660.378 82.04 661.964 82.1333 663.458 82.32H669.058C683.431 82.32 698.925 79.3333 715.538 73.36C716.471 77.0933 716.938 81.3867 716.938 86.24V98C720.484 88.8533 724.311 82.4133 728.418 78.68C732.711 74.9467 738.218 73.08 744.938 73.08C751.284 73.08 756.418 75.04 760.338 78.96C764.444 82.88 766.498 87.8267 766.498 93.8Z" fill="#FFFFFF"/>
<path d="M898.214 182.84C898.214 184.333 896.72 186.387 893.734 189C885.707 196.28 875.814 199.92 864.054 199.92C856.4 199.92 850.8 198.333 847.254 195.16C843.894 191.987 841.654 186.293 840.534 178.08C832.134 193.387 820.654 201.04 806.094 201.04C798.067 201.04 791.534 198.52 786.494 193.48C781.64 188.44 779.214 181.907 779.214 173.88C779.214 150.36 799.374 136.453 839.694 132.16V126.28C839.694 107.613 839.04 96.1333 837.734 91.84L837.454 90.44C834.84 81.1067 828.214 76.44 817.574 76.44C811.414 76.44 806.467 78.2133 802.734 81.76C799 85.3067 797.134 88.76 797.134 92.12C797.134 93.9867 799.374 95.1067 803.854 95.48C810.574 96.04 813.934 100.147 813.934 107.8C813.934 111.907 812.534 115.36 809.734 118.16C807.12 120.773 803.667 122.08 799.374 122.08C793.96 122.08 789.48 120.493 785.934 117.32C782.574 113.96 780.894 109.76 780.894 104.72C780.894 96.6933 784.907 89.4133 792.934 82.88C800.96 76.3467 811.507 73.08 824.574 73.08C843.987 73.08 857.52 76.5333 865.174 83.44C871.334 89.2267 874.414 99.3067 874.414 113.68V161.56C874.414 170.893 874.507 176.307 874.694 177.8C875.627 185.64 878.334 189.56 882.814 189.56C885.987 189.56 889.907 187.32 894.574 182.84C895.507 181.907 896.254 181.44 896.814 181.44C897.747 181.44 898.214 181.907 898.214 182.84ZM839.694 149.52V135.8C821.587 139.347 812.534 149.613 812.534 166.6C812.534 179.667 817.014 186.2 825.974 186.2C831.014 186.2 834.56 183.4 836.614 177.8C838.667 172.2 839.694 162.773 839.694 149.52Z" fill="#FFFFFF"/>
<path d="M35.5804 272.41C38.3338 272.923 40.6671 274.323 42.5804 276.61C44.4938 278.897 45.4504 281.557 45.4504 284.59C45.4504 287.063 44.8204 289.303 43.5604 291.31C42.3471 293.27 40.5504 294.833 38.1704 296C35.7904 297.12 32.9438 297.68 29.6304 297.68H12.6904V248.75H29.1404C34.0871 248.75 37.8438 249.893 40.4104 252.18C43.0238 254.467 44.3304 257.43 44.3304 261.07C44.3304 264.103 43.5138 266.577 41.8804 268.49C40.2471 270.357 38.1471 271.663 35.5804 272.41ZM17.5904 270.38H29.0004C32.3138 270.38 34.8571 269.61 36.6304 268.07C38.4504 266.483 39.3604 264.313 39.3604 261.56C39.3604 258.853 38.4504 256.73 36.6304 255.19C34.8571 253.65 32.2438 252.88 28.7904 252.88H17.5904V270.38ZM29.2804 293.55C32.8271 293.55 35.5804 292.71 37.5404 291.03C39.5471 289.35 40.5504 287.04 40.5504 284.1C40.5504 281.16 39.5004 278.827 37.4004 277.1C35.3471 275.327 32.5704 274.44 29.0704 274.44H17.5904V293.55H29.2804Z" fill="#FFFFFF"/>
<path d="M82.808 286.06H60.548L56.278 297.68H51.098L68.948 249.38H74.478L92.258 297.68H87.078L82.808 286.06ZM81.338 282L71.678 255.54L62.018 282H81.338Z" fill="#FFFFFF"/>
<path d="M128.752 248.75V252.81H115.172V297.68H110.272V252.81H96.6221V248.75H128.752Z" fill="#FFFFFF"/>
<path d="M172.819 248.75V297.68H167.919V274.79H141.389V297.68H136.489V248.75H141.389V270.73H167.919V248.75H172.819Z" fill="#FFFFFF"/>
<path d="M243.359 248.75L229.499 297.68H224.039L211.719 255.96L199.119 297.68L193.799 297.75L180.219 248.75H185.469L196.669 291.66L209.199 248.75H214.659L226.839 291.66L238.109 248.75H243.359Z" fill="#FFFFFF"/>
<path d="M279.204 286.06H256.944L252.674 297.68H247.494L265.344 249.38H270.874L288.654 297.68H283.474L279.204 286.06ZM277.734 282L268.074 255.54L258.414 282H277.734Z" fill="#FFFFFF"/>
<path d="M322.559 297.68L310.449 277.24H301.419V297.68H296.519V248.75H311.219C316.679 248.75 320.809 250.057 323.609 252.67C326.455 255.283 327.879 258.713 327.879 262.96C327.879 266.507 326.852 269.54 324.799 272.06C322.792 274.533 319.805 276.143 315.839 276.89L328.439 297.68H322.559ZM301.419 273.25H311.289C315.115 273.25 317.985 272.317 319.899 270.45C321.859 268.583 322.839 266.087 322.839 262.96C322.839 259.74 321.905 257.267 320.039 255.54C318.172 253.767 315.232 252.88 311.219 252.88H301.419V273.25Z" fill="#FFFFFF"/>
<path d="M342.503 252.74V271.01H361.053V275.07H342.503V293.62H363.153V297.68H337.603V248.68H363.153V252.74H342.503Z" fill="#FFFFFF"/>
<path d="M423.307 262.82C423.307 267.02 421.93 270.403 419.177 272.97C416.423 275.537 412.293 276.82 406.787 276.82H396.917V297.68H392.017V248.75H406.787C412.247 248.75 416.353 250.033 419.107 252.6C421.907 255.167 423.307 258.573 423.307 262.82ZM406.787 272.62C414.44 272.62 418.267 269.353 418.267 262.82C418.267 259.553 417.357 257.08 415.537 255.4C413.717 253.72 410.8 252.88 406.787 252.88H396.917V272.62H406.787Z" fill="#FFFFFF"/>
<path d="M457.568 297.68L445.458 277.24H436.428V297.68H431.528V248.75H446.228C451.688 248.75 455.818 250.057 458.618 252.67C461.465 255.283 462.888 258.713 462.888 262.96C462.888 266.507 461.862 269.54 459.808 272.06C457.802 274.533 454.815 276.143 450.848 276.89L463.448 297.68H457.568ZM436.428 273.25H446.298C450.125 273.25 452.995 272.317 454.908 270.45C456.868 268.583 457.848 266.087 457.848 262.96C457.848 259.74 456.915 257.267 455.048 255.54C453.182 253.767 450.242 252.88 446.228 252.88H436.428V273.25Z" fill="#FFFFFF"/>
<path d="M494.592 298.17C490.066 298.17 485.959 297.12 482.272 295.02C478.586 292.873 475.669 289.91 473.522 286.13C471.422 282.303 470.372 277.987 470.372 273.18C470.372 268.373 471.422 264.08 473.522 260.3C475.669 256.473 478.586 253.51 482.272 251.41C485.959 249.263 490.066 248.19 494.592 248.19C499.166 248.19 503.296 249.263 506.982 251.41C510.669 253.51 513.562 256.473 515.662 260.3C517.762 264.08 518.812 268.373 518.812 273.18C518.812 277.987 517.762 282.303 515.662 286.13C513.562 289.91 510.669 292.873 506.982 295.02C503.296 297.12 499.166 298.17 494.592 298.17ZM494.592 293.9C498.232 293.9 501.499 293.06 504.392 291.38C507.286 289.7 509.572 287.297 511.252 284.17C512.932 280.997 513.772 277.333 513.772 273.18C513.772 269.027 512.932 265.387 511.252 262.26C509.572 259.133 507.286 256.73 504.392 255.05C501.499 253.37 498.232 252.53 494.592 252.53C490.952 252.53 487.686 253.37 484.792 255.05C481.899 256.73 479.612 259.133 477.932 262.26C476.252 265.387 475.412 269.027 475.412 273.18C475.412 277.333 476.252 280.997 477.932 284.17C479.612 287.297 481.899 289.7 484.792 291.38C487.686 293.06 490.952 293.9 494.592 293.9Z" fill="#FFFFFF"/>
<path d="M542.268 248.75C547.682 248.75 552.325 249.73 556.198 251.69C560.072 253.65 563.035 256.473 565.088 260.16C567.142 263.847 568.168 268.233 568.168 273.32C568.168 278.36 567.142 282.723 565.088 286.41C563.035 290.05 560.072 292.85 556.198 294.81C552.325 296.723 547.682 297.68 542.268 297.68H527.778V248.75H542.268ZM542.268 293.62C549.082 293.62 554.262 291.847 557.808 288.3C561.402 284.707 563.198 279.713 563.198 273.32C563.198 266.88 561.402 261.863 557.808 258.27C554.262 254.63 549.082 252.81 542.268 252.81H532.678V293.62H542.268Z" fill="#FFFFFF"/>
<path d="M581.892 248.75V279.55C581.892 284.403 583.035 287.997 585.322 290.33C587.655 292.663 590.829 293.83 594.842 293.83C598.855 293.83 601.982 292.687 604.222 290.4C606.509 288.067 607.652 284.45 607.652 279.55V248.75H612.552V279.48C612.552 285.687 610.895 290.353 607.582 293.48C604.315 296.607 600.045 298.17 594.772 298.17C589.499 298.17 585.205 296.607 581.892 293.48C578.625 290.353 576.992 285.687 576.992 279.48V248.75H581.892Z" fill="#FFFFFF"/>
<path d="M621.241 273.18C621.241 268.373 622.291 264.08 624.391 260.3C626.491 256.473 629.361 253.51 633.001 251.41C636.641 249.263 640.701 248.19 645.181 248.19C650.641 248.19 655.308 249.497 659.181 252.11C663.101 254.677 665.948 258.317 667.721 263.03H661.981C660.581 259.717 658.435 257.127 655.541 255.26C652.695 253.393 649.241 252.46 645.181 252.46C641.588 252.46 638.345 253.3 635.451 254.98C632.605 256.66 630.365 259.087 628.731 262.26C627.098 265.387 626.281 269.027 626.281 273.18C626.281 277.333 627.098 280.973 628.731 284.1C630.365 287.227 632.605 289.63 635.451 291.31C638.345 292.99 641.588 293.83 645.181 293.83C649.241 293.83 652.695 292.92 655.541 291.1C658.435 289.233 660.581 286.667 661.981 283.4H667.721C665.948 288.067 663.101 291.683 659.181 294.25C655.261 296.817 650.595 298.1 645.181 298.1C640.701 298.1 636.641 297.05 633.001 294.95C629.361 292.803 626.491 289.84 624.391 286.06C622.291 282.28 621.241 277.987 621.241 273.18Z" fill="#FFFFFF"/>
<path d="M706.115 248.75V252.81H692.535V297.68H687.635V252.81H673.985V248.75H706.115Z" fill="#FFFFFF"/>
<path d="M728.693 298.17C725.473 298.17 722.626 297.61 720.153 296.49C717.726 295.37 715.813 293.807 714.413 291.8C713.013 289.793 712.266 287.553 712.173 285.08H717.353C717.586 287.46 718.636 289.56 720.503 291.38C722.369 293.153 725.099 294.04 728.693 294.04C732.006 294.04 734.619 293.2 736.533 291.52C738.493 289.793 739.473 287.623 739.473 285.01C739.473 282.91 738.936 281.23 737.863 279.97C736.789 278.663 735.459 277.707 733.873 277.1C732.286 276.447 730.093 275.747 727.293 275C724.026 274.113 721.436 273.25 719.523 272.41C717.609 271.57 715.976 270.263 714.623 268.49C713.269 266.717 712.593 264.313 712.593 261.28C712.593 258.76 713.246 256.52 714.553 254.56C715.859 252.553 717.703 250.99 720.083 249.87C722.463 248.75 725.193 248.19 728.273 248.19C732.799 248.19 736.439 249.31 739.193 251.55C741.993 253.743 743.603 256.59 744.023 260.09H738.703C738.376 258.083 737.279 256.31 735.413 254.77C733.546 253.183 731.026 252.39 727.853 252.39C724.913 252.39 722.463 253.183 720.503 254.77C718.543 256.31 717.563 258.433 717.563 261.14C717.563 263.193 718.099 264.85 719.173 266.11C720.246 267.37 721.576 268.327 723.163 268.98C724.796 269.633 726.989 270.333 729.743 271.08C732.916 271.967 735.483 272.853 737.443 273.74C739.403 274.58 741.059 275.887 742.413 277.66C743.766 279.433 744.443 281.813 744.443 284.8C744.443 287.087 743.836 289.257 742.623 291.31C741.409 293.363 739.613 295.02 737.233 296.28C734.853 297.54 732.006 298.17 728.693 298.17Z" fill="#FFFFFF"/>
<rect x="762.091" y="245.68" width="131" height="52" fill="#1C969C"/>
</svg>
